<mxfile host="65bd71144e">
    <diagram id="RjoTIrvvtPjA3gkt8URY" name="Page-1">
        <mxGraphModel dx="438" dy="771" grid="1" gridSize="10" guides="1" tooltips="1" connect="1" arrows="1" fold="1" page="1" pageScale="1" pageWidth="850" pageHeight="1100" math="0" shadow="0">
            <root>
                <mxCell id="0"/>
                <mxCell id="1" parent="0"/>
                <mxCell id="2" value="" style="group" vertex="1" connectable="0" parent="1">
                    <mxGeometry x="900" y="130" width="770" height="430" as="geometry"/>
                </mxCell>
                <mxCell id="3" value="" style="whiteSpace=wrap;html=1;" vertex="1" parent="2">
                    <mxGeometry width="770" height="430" as="geometry"/>
                </mxCell>
                <mxCell id="4" value="&lt;font style=&quot;font-size: 24px&quot;&gt;Free Market Offers&lt;/font&gt;" style="text;html=1;strokeColor=none;fillColor=none;align=center;verticalAlign=middle;whiteSpace=wrap;rounded=0;fontSize=18;" vertex="1" parent="2">
                    <mxGeometry x="268.25" y="30" width="230" height="30" as="geometry"/>
                </mxCell>
                <mxCell id="5" value="" style="group" vertex="1" connectable="0" parent="2">
                    <mxGeometry x="48.25" y="120" width="670" height="80" as="geometry"/>
                </mxCell>
                <mxCell id="6" value="" style="rounded=1;whiteSpace=wrap;html=1;fontSize=18;strokeColor=#3A5431;fillColor=#6d8764;fontColor=#ffffff;" vertex="1" parent="5">
                    <mxGeometry width="670" height="80" as="geometry"/>
                </mxCell>
                <mxCell id="7" value="ITEM" style="rounded=0;whiteSpace=wrap;html=1;fontSize=18;strokeColor=#314354;fillColor=#647687;fontColor=#ffffff;" vertex="1" parent="5">
                    <mxGeometry x="40" y="10" width="160" height="60" as="geometry"/>
                </mxCell>
                <mxCell id="8" value="PRICE" style="rounded=0;whiteSpace=wrap;html=1;fontSize=18;strokeColor=#314354;fillColor=#647687;fontColor=#ffffff;" vertex="1" parent="5">
                    <mxGeometry x="230" y="10" width="190" height="60" as="geometry"/>
                </mxCell>
                <mxCell id="9" value="DESCRIPTION" style="rounded=0;whiteSpace=wrap;html=1;fontSize=18;strokeColor=#314354;fillColor=#647687;fontColor=#ffffff;" vertex="1" parent="5">
                    <mxGeometry x="440" y="10" width="210" height="60" as="geometry"/>
                </mxCell>
                <mxCell id="10" value="" style="group" vertex="1" connectable="0" parent="2">
                    <mxGeometry x="48.25" y="220" width="670" height="80" as="geometry"/>
                </mxCell>
                <mxCell id="11" value="" style="rounded=1;whiteSpace=wrap;html=1;fontSize=18;strokeColor=#3A5431;fillColor=#6d8764;fontColor=#ffffff;" vertex="1" parent="10">
                    <mxGeometry width="670" height="80" as="geometry"/>
                </mxCell>
                <mxCell id="12" value="ITEM" style="rounded=0;whiteSpace=wrap;html=1;fontSize=18;strokeColor=#314354;fillColor=#647687;fontColor=#ffffff;" vertex="1" parent="10">
                    <mxGeometry x="40" y="10" width="160" height="60" as="geometry"/>
                </mxCell>
                <mxCell id="13" value="PRICE" style="rounded=0;whiteSpace=wrap;html=1;fontSize=18;strokeColor=#314354;fillColor=#647687;fontColor=#ffffff;" vertex="1" parent="10">
                    <mxGeometry x="230" y="10" width="190" height="60" as="geometry"/>
                </mxCell>
                <mxCell id="14" value="DESCRIPTION" style="rounded=0;whiteSpace=wrap;html=1;fontSize=18;strokeColor=#314354;fillColor=#647687;fontColor=#ffffff;" vertex="1" parent="10">
                    <mxGeometry x="440" y="10" width="210" height="60" as="geometry"/>
                </mxCell>
                <mxCell id="15" value="" style="group" vertex="1" connectable="0" parent="2">
                    <mxGeometry x="50.75" y="320" width="670" height="80" as="geometry"/>
                </mxCell>
                <mxCell id="16" value="" style="rounded=1;whiteSpace=wrap;html=1;fontSize=18;strokeColor=#3A5431;fillColor=#6d8764;fontColor=#ffffff;" vertex="1" parent="15">
                    <mxGeometry width="670" height="80" as="geometry"/>
                </mxCell>
                <mxCell id="17" value="ITEM" style="rounded=0;whiteSpace=wrap;html=1;fontSize=18;strokeColor=#314354;fillColor=#647687;fontColor=#ffffff;" vertex="1" parent="15">
                    <mxGeometry x="40" y="10" width="160" height="60" as="geometry"/>
                </mxCell>
                <mxCell id="18" value="PRICE" style="rounded=0;whiteSpace=wrap;html=1;fontSize=18;strokeColor=#314354;fillColor=#647687;fontColor=#ffffff;" vertex="1" parent="15">
                    <mxGeometry x="230" y="10" width="190" height="60" as="geometry"/>
                </mxCell>
                <mxCell id="19" value="DESCRIPTION" style="rounded=0;whiteSpace=wrap;html=1;fontSize=18;strokeColor=#314354;fillColor=#647687;fontColor=#ffffff;" vertex="1" parent="15">
                    <mxGeometry x="440" y="10" width="210" height="60" as="geometry"/>
                </mxCell>
            </root>
        </mxGraphModel>
    </diagram>
</mxfile>